<svg xmlns="http://www.w3.org/2000/svg" xmlns:xlink="http://www.w3.org/1999/xlink" version="1.1" width="20pt" height="20pt" viewBox="0 0 20 20">
<path d="M0 14V6C0 5.6060349 .03842943 5.2158539 .1152883 4.8294579 .19214717 4.443062 .30595867 4.067876 .45672278 3.7038992 .60748687 3.3399223 .79230669 2.9941488 1.0111822 2.6665786 1.2300577 2.3390079 1.4787834 2.035935 1.7573593 1.7573593 2.035935 1.4787834 2.3390079 1.2300577 2.6665786 1.0111822 2.9941488 .79230669 3.3399223 .60748687 3.7038992 .45672278 4.067876 .30595867 4.4430625 .19214717 4.829458 .1152883 5.215854 .03842943 5.6060349 0 6 0H14C14.393966 0 14.784145 .03842943 15.17054 .1152883 15.556936 .19214717 15.932122 .30595867 16.296099 .45672278 16.660077 .60748687 17.00585 .79230669 17.33342 1.0111822 17.66099 1.2300577 17.964064 1.4787834 18.24264 1.7573593 18.521214 2.035935 18.76994 2.3390079 18.988816 2.6665786 19.207692 2.9941488 19.392512 3.3399223 19.543274 3.7038992 19.694039 4.067876 19.80785 4.4430625 19.88471 4.829458 19.961569 5.215854 19.999999 5.6060349 20 6V14C19.999999 14.393966 19.961569 14.784145 19.88471 15.17054 19.80785 15.556936 19.694039 15.932122 19.543274 16.296099 19.392512 16.660077 19.207692 17.00585 18.988816 17.33342 18.76994 17.66099 18.521214 17.964064 18.24264 18.24264 17.964064 18.521214 17.66099 18.76994 17.33342 18.988816 17.00585 19.207692 16.660077 19.392512 16.296099 19.543274 15.932122 19.694039 15.556936 19.80785 15.170541 19.88471 14.784145 19.961569 14.393966 19.999999 14 20H6C5.6060349 19.999999 5.2158539 19.961569 4.8294579 19.88471 4.443062 19.80785 4.067876 19.694039 3.7038992 19.543274 3.3399223 19.392512 2.9941488 19.207692 2.6665786 18.988816 2.3390079 18.76994 2.035935 18.521214 1.7573593 18.24264 1.4787834 17.964064 1.2300577 17.66099 1.0111822 17.33342 .79230669 17.00585 .60748687 16.660077 .45672278 16.296099 .30595867 15.932122 .19214717 15.556936 .1152883 15.170541 .03842943 14.784145 0 14.393966 0 14Z" fill="#f2f2f2"/>
</svg>
