<svg width="14" height="16" viewBox="0 0 14 16" fill="none" xmlns="http://www.w3.org/2000/svg">
<path d="M1.333 14C1.333 13.8231 1.40327 13.6534 1.52836 13.5284C1.65345 13.4033 1.8231 13.333 2 13.333H12C12.3535 13.333 12.6926 13.1926 12.9426 12.9426C13.1926 12.6926 13.333 12.3535 13.333 12V2C13.333 1.46957 13.1223 0.960859 12.7472 0.585786C12.3721 0.210714 11.8634 0 11.333 0L6.667 0V5.333L4.667 4L2.667 5.333V0H2C1.46957 0 0.960859 0.210714 0.585786 0.585786C0.210714 0.960859 0 1.46957 0 2V14C0 14.5304 0.210714 15.0391 0.585786 15.4142C0.960859 15.7893 1.46957 16 2 16H12.667C12.8393 15.9933 13.0023 15.9202 13.1219 15.7959C13.2414 15.6717 13.3082 15.5059 13.3082 15.3335C13.3082 15.1611 13.2414 14.9953 13.1219 14.8711C13.0023 14.7468 12.8393 14.6737 12.667 14.667H2C1.8231 14.667 1.65345 14.5967 1.52836 14.4716C1.40327 14.3466 1.333 14.1769 1.333 14Z" fill="___PRIMARY_COLOR___"/>
</svg>
