<svg width="24" height="24" viewBox="0 0 24 24" fill="none" xmlns="http://www.w3.org/2000/svg">
<path d="M6.06219 9.49152L9.49619 6.05752C9.85204 5.70079 10.2788 5.42274 10.7489 5.24135C11.219 5.05997 11.7219 4.97928 12.2252 5.00452L16.0152 5.18652C16.7447 5.21779 17.4362 5.52041 17.9542 6.03505C18.4721 6.54969 18.7792 7.23924 18.8152 7.96852L18.9972 11.7585C19.0204 12.2616 18.9387 12.7641 18.7573 13.2339C18.5758 13.7037 18.2986 14.1306 17.9432 14.4875L14.5072 17.9255C13.8279 18.6027 12.9078 18.9829 11.9487 18.9829C10.9895 18.9829 10.0695 18.6027 9.39019 17.9255L6.06219 14.5935C5.72561 14.2596 5.45847 13.8624 5.27616 13.4247C5.09386 12.987 5 12.5176 5 12.0435C5 11.5694 5.09386 11.1 5.27616 10.6623C5.45847 10.2247 5.72561 9.82743 6.06219 9.49352V9.49152ZM13.8932 12.2815C14.3251 12.2813 14.7473 12.153 15.1064 11.9129C15.4654 11.6727 15.7452 11.3315 15.9103 10.9324C16.0754 10.5332 16.1185 10.0941 16.034 9.67046C15.9496 9.24684 15.7414 8.85779 15.4358 8.55249C15.1302 8.24719 14.741 8.03937 14.3173 7.95529C13.8936 7.87121 13.4545 7.91466 13.0555 8.08015C12.6565 8.24563 12.3155 8.52572 12.0757 8.88499C11.8359 9.24425 11.708 9.66656 11.7082 10.0985C11.7083 10.3853 11.7649 10.6693 11.8748 10.9342C11.9847 11.1991 12.1457 11.4398 12.3486 11.6425C12.5515 11.8453 12.7923 12.006 13.0573 12.1157C13.3224 12.2253 13.6064 12.2816 13.8932 12.2815Z" fill="#999999"/>
</svg>
